<svg width="1792" height="1080" viewBox="0 0 1792 1080" fill="none" xmlns="http://www.w3.org/2000/svg">
<line x1="0.500061" y1="2.18557e-08" x2="0.500014" y2="1080" stroke="white" stroke-opacity="0.05"/>
<line x1="50.5001" y1="2.18557e-08" x2="50.5001" y2="1080" stroke="white" stroke-opacity="0.05"/>
<line x1="100.5" y1="2.18557e-08" x2="100.5" y2="1080" stroke="white" stroke-opacity="0.05"/>
<line x1="150.5" y1="2.18557e-08" x2="150.5" y2="1080" stroke="white" stroke-opacity="0.05"/>
<line x1="200.5" y1="2.18557e-08" x2="200.5" y2="1080" stroke="white" stroke-opacity="0.05"/>
<line x1="250.5" y1="2.18557e-08" x2="250.5" y2="1080" stroke="white" stroke-opacity="0.05"/>
<line x1="300.5" y1="2.18557e-08" x2="300.5" y2="1080" stroke="white" stroke-opacity="0.05"/>
<line x1="350.5" y1="2.18557e-08" x2="350.5" y2="1080" stroke="white" stroke-opacity="0.05"/>
<line x1="400.501" y1="2.18557e-08" x2="400.5" y2="1080" stroke="white" stroke-opacity="0.05"/>
<line x1="450.501" y1="2.18557e-08" x2="450.501" y2="1080" stroke="white" stroke-opacity="0.05"/>
<line x1="500.501" y1="2.18557e-08" x2="500.501" y2="1080" stroke="white" stroke-opacity="0.05"/>
<line x1="550.501" y1="2.18557e-08" x2="550.501" y2="1080" stroke="white" stroke-opacity="0.05"/>
<line x1="600.501" y1="2.18557e-08" x2="600.501" y2="1080" stroke="white" stroke-opacity="0.05"/>
<line x1="650.501" y1="2.18557e-08" x2="650.501" y2="1080" stroke="white" stroke-opacity="0.05"/>
<line x1="700.501" y1="2.18557e-08" x2="700.501" y2="1080" stroke="white" stroke-opacity="0.05"/>
<line x1="750.501" y1="2.18557e-08" x2="750.501" y2="1080" stroke="white" stroke-opacity="0.05"/>
<line x1="800.501" y1="2.18557e-08" x2="800.501" y2="1080" stroke="white" stroke-opacity="0.05"/>
<line x1="850.501" y1="2.18557e-08" x2="850.501" y2="1080" stroke="white" stroke-opacity="0.05"/>
<line x1="900.501" y1="2.18557e-08" x2="900.501" y2="1080" stroke="white" stroke-opacity="0.05"/>
<line x1="950.501" y1="2.18557e-08" x2="950.501" y2="1080" stroke="white" stroke-opacity="0.05"/>
<line x1="1000.5" y1="2.18557e-08" x2="1000.5" y2="1080" stroke="white" stroke-opacity="0.05"/>
<line x1="1050.5" y1="2.18557e-08" x2="1050.5" y2="1080" stroke="white" stroke-opacity="0.05"/>
<line x1="1100.5" y1="2.18557e-08" x2="1100.5" y2="1080" stroke="white" stroke-opacity="0.05"/>
<line x1="1150.5" y1="2.18557e-08" x2="1150.5" y2="1080" stroke="white" stroke-opacity="0.05"/>
<line x1="1200.5" y1="2.18557e-08" x2="1200.5" y2="1080" stroke="white" stroke-opacity="0.05"/>
<line x1="1250.5" y1="2.18557e-08" x2="1250.5" y2="1080" stroke="white" stroke-opacity="0.05"/>
<line x1="1300.5" y1="2.18557e-08" x2="1300.5" y2="1080" stroke="white" stroke-opacity="0.05"/>
<line x1="1350.5" y1="2.18557e-08" x2="1350.5" y2="1080" stroke="white" stroke-opacity="0.05"/>
<line x1="1400.5" y1="2.18557e-08" x2="1400.5" y2="1080" stroke="white" stroke-opacity="0.05"/>
<line x1="1450.5" y1="2.18557e-08" x2="1450.5" y2="1080" stroke="white" stroke-opacity="0.05"/>
<line x1="1500.5" y1="2.18557e-08" x2="1500.5" y2="1080" stroke="white" stroke-opacity="0.05"/>
<line x1="1550.5" y1="2.18557e-08" x2="1550.5" y2="1080" stroke="white" stroke-opacity="0.05"/>
<line x1="1600.5" y1="2.18557e-08" x2="1600.5" y2="1080" stroke="white" stroke-opacity="0.05"/>
<line x1="1650.5" y1="2.18557e-08" x2="1650.5" y2="1080" stroke="white" stroke-opacity="0.05"/>
<line x1="1700.5" y1="2.18557e-08" x2="1700.5" y2="1080" stroke="white" stroke-opacity="0.05"/>
<line x1="1750.5" y1="2.18557e-08" x2="1750.5" y2="1080" stroke="white" stroke-opacity="0.05"/>
<line x1="6.82609e-09" y1="1049.5" x2="1792" y2="1049.5" stroke="white" stroke-opacity="0.05"/>
<line x1="6.82609e-09" y1="999.5" x2="1792" y2="999.5" stroke="white" stroke-opacity="0.05"/>
<line x1="6.82609e-09" y1="949.5" x2="1792" y2="949.5" stroke="white" stroke-opacity="0.05"/>
<line x1="6.82609e-09" y1="899.5" x2="1792" y2="899.5" stroke="white" stroke-opacity="0.05"/>
<line x1="6.82609e-09" y1="849.5" x2="1792" y2="849.5" stroke="white" stroke-opacity="0.05"/>
<line x1="6.82609e-09" y1="799.5" x2="1792" y2="799.5" stroke="white" stroke-opacity="0.05"/>
<line x1="6.82609e-09" y1="749.5" x2="1792" y2="749.5" stroke="white" stroke-opacity="0.05"/>
<line x1="6.82609e-09" y1="699.5" x2="1792" y2="699.5" stroke="white" stroke-opacity="0.05"/>
<line x1="6.82609e-09" y1="649.5" x2="1792" y2="649.5" stroke="white" stroke-opacity="0.05"/>
<line x1="6.82609e-09" y1="599.5" x2="1792" y2="599.5" stroke="white" stroke-opacity="0.05"/>
<line x1="6.82609e-09" y1="549.5" x2="1792" y2="549.5" stroke="white" stroke-opacity="0.05"/>
<line x1="6.58598e-09" y1="499.5" x2="1792" y2="499.5" stroke="white" stroke-opacity="0.05"/>
<line x1="6.82609e-09" y1="449.5" x2="1792" y2="449.5" stroke="white" stroke-opacity="0.05"/>
<line x1="6.82609e-09" y1="399.5" x2="1792" y2="399.5" stroke="white" stroke-opacity="0.05"/>
<line x1="6.82609e-09" y1="349.5" x2="1792" y2="349.5" stroke="white" stroke-opacity="0.05"/>
<line x1="6.82609e-09" y1="299.5" x2="1792" y2="299.5" stroke="white" stroke-opacity="0.05"/>
<line x1="6.82609e-09" y1="249.5" x2="1792" y2="249.5" stroke="white" stroke-opacity="0.05"/>
<line x1="6.82609e-09" y1="199.5" x2="1792" y2="199.5" stroke="white" stroke-opacity="0.05"/>
<line x1="6.82609e-09" y1="149.5" x2="1792" y2="149.5" stroke="white" stroke-opacity="0.05"/>
<line x1="6.82609e-09" y1="99.5" x2="1792" y2="99.5" stroke="white" stroke-opacity="0.05"/>
<line x1="6.82609e-09" y1="49.5" x2="1792" y2="49.5" stroke="white" stroke-opacity="0.05"/>
</svg>
